<svg width="202" height="40" viewBox="0 0 202 40" fill="none" xmlns="http://www.w3.org/2000/svg">
<path d="M30.1792 17.2104C29.0413 18.3456 28.4726 19.9246 28.6279 21.5178L28.6012 21.4913C28.7608 23.3661 28.0788 25.2154 26.7371 26.5458C25.3954 27.8762 23.5305 28.5525 21.6397 28.3942L21.6664 28.4207C19.3772 28.2094 17.2001 29.4442 16.2232 31.5079C15.2462 33.5717 15.6791 36.0213 17.3056 37.6326C18.9321 39.2439 21.4028 39.671 23.4832 38.7004C25.5636 37.7298 26.8068 35.5699 26.5917 33.3001L26.6199 33.3266C26.4603 31.4518 27.1423 29.6025 28.484 28.2721C29.8257 26.9417 31.6906 26.2654 33.5814 26.4236L33.5532 26.3972C36.0691 26.6215 38.4102 25.1004 39.2072 22.7234C40.0041 20.3464 39.0474 17.7382 36.8967 16.4242C34.7461 15.1102 31.9664 15.4358 30.1837 17.2104H30.1792Z" fill="#5454D4"/>
<path d="M19.2387 24.9531L19.2105 24.9266C20.8182 25.0872 22.4137 24.5235 23.5567 23.391C24.6997 22.2584 25.2694 20.6768 25.1086 19.0825L25.1368 19.109C24.9772 17.2341 25.6592 15.3849 27.0009 14.0544C28.3426 12.724 30.2076 12.0478 32.0983 12.206L32.0701 12.1795C34.3596 12.3927 36.538 11.1593 37.5164 9.09588C38.4949 7.03242 38.0632 4.58213 36.4372 2.9698C34.8112 1.35747 32.3401 0.929441 30.2592 1.89966C28.1782 2.86988 26.9343 5.02995 27.1493 7.30013L27.1226 7.27219C27.2828 9.14715 26.6009 10.9967 25.2591 12.3273C23.9173 13.6578 22.052 14.3339 20.1612 14.1751L20.1878 14.2031C18.5801 14.0424 16.9847 14.6062 15.8416 15.7387C14.6986 16.8713 14.1289 18.4529 14.2897 20.0472L14.263 20.0207C14.4221 21.8954 13.7399 23.7444 12.3983 25.0747C11.0567 26.405 9.19212 27.0814 7.30151 26.9237L7.32821 26.9501C5.03877 26.7369 2.86038 27.9703 1.88193 30.0338C0.903478 32.0973 1.33514 34.5476 2.96114 36.1599C4.58715 37.7722 7.05823 38.2002 9.13919 37.23C11.2202 36.2598 12.464 34.0997 12.249 31.8295L12.2772 31.856C12.1176 29.9812 12.7996 28.1319 14.1413 26.8015C15.483 25.4711 17.348 24.7948 19.2387 24.9531Z" fill="#FF7143"/>
<path d="M9.2992 22.0016C10.4373 20.8665 11.0055 19.2873 10.849 17.6942L10.8772 17.7207C10.7175 15.8453 11.3998 13.9955 12.7422 12.665C14.0846 11.3344 15.9504 10.6586 17.8416 10.8178L17.8135 10.7913C20.1021 11.0039 22.2795 9.7706 23.2573 7.7078C24.2352 5.64499 23.8035 3.19566 22.1781 1.58393C20.5527 -0.0277992 18.0826 -0.455804 16.0023 0.513824C13.922 1.48345 12.6783 3.64248 12.8927 5.91187L12.866 5.8854C13.0256 7.76024 12.3436 9.60949 11.0019 10.9399C9.66015 12.2703 7.79521 12.9466 5.90447 12.7883L5.93117 12.8148C3.41531 12.5911 1.07468 14.1127 0.278255 16.4896C-0.518171 18.8666 0.438799 21.4746 2.58946 22.7882C4.74013 24.1019 7.51957 23.7762 9.30217 22.0016H9.2992Z" fill="#5454D4"/>
<path d="M55.24 7.33392H59.6447V28.5883H55.24V7.33392Z" fill="#19191B"/>
<path fill-rule="evenodd" clip-rule="evenodd" d="M66.9213 14.1596C64.0146 15.3636 62.1266 18.1867 62.1392 21.3104C62.124 23.3586 62.9399 25.3269 64.4035 26.7724C65.8671 28.2178 67.8553 29.019 69.9209 28.9957C73.0711 28.9957 75.9105 27.1123 77.1131 24.2252C78.3157 21.3381 77.6442 18.0168 75.4122 15.8124C73.1802 13.6081 69.8281 12.9555 66.9213 14.1596ZM69.8583 18.0536C71.7117 18.0197 73.2465 19.473 73.2978 21.3104C73.3478 22.2213 73.0114 23.1114 72.37 23.7653C71.7285 24.4193 70.8405 24.7774 69.9209 24.7531C68.0671 24.7532 66.5596 23.2721 66.5424 21.4341C66.5252 19.596 68.0049 18.0875 69.8583 18.0536Z" fill="#19191B"/>
<path fill-rule="evenodd" clip-rule="evenodd" d="M95.2575 27.8545V14.031L90.97 14.0281V15.5133C89.9241 14.2443 88.3334 13.5421 86.6825 13.6207C82.6553 13.7466 79.4564 17.0203 79.4564 21.0156C79.4564 25.0109 82.6553 28.2845 86.6825 28.4104C88.3334 28.489 89.9241 27.7868 90.97 26.5178V27.8486C91.0437 28.7267 90.711 29.5905 90.0658 30.1963C89.4205 30.8021 88.5326 31.0843 87.6524 30.9633C86.2601 31.1043 84.9259 30.3733 84.3051 29.1295L80.547 31.2839C82.0173 33.6593 84.7026 35.0214 87.5056 34.8133C91.4105 34.8133 95.2575 32.7457 95.2575 27.8545ZM88.8784 17.6533C90.2035 18.2458 91.032 19.5777 90.9715 21.0177C90.9989 21.9476 90.6285 22.8456 89.9519 23.4899C89.2752 24.1342 88.3554 24.4649 87.4195 24.4001C85.966 24.4018 84.6575 23.527 84.114 22.1903C83.5706 20.8535 83.9014 19.3234 84.9498 18.325C85.9982 17.3267 87.5534 17.0608 88.8784 17.6533Z" fill="#19191B"/>
<path fill-rule="evenodd" clip-rule="evenodd" d="M102.534 14.1596C99.6273 15.3636 97.7394 18.1867 97.752 21.3104C97.7367 23.3586 98.5527 25.3269 100.016 26.7724C101.48 28.2178 103.468 29.019 105.534 28.9957C108.684 28.9957 111.523 27.1123 112.726 24.2252C113.928 21.3381 113.257 18.0168 111.025 15.8124C108.793 13.6081 105.441 12.9555 102.534 14.1596ZM105.471 18.0536C107.324 18.0197 108.859 19.473 108.911 21.3104C108.961 22.2213 108.624 23.1114 107.983 23.7653C107.341 24.4193 106.453 24.7774 105.534 24.7531C103.68 24.7532 102.172 23.2721 102.155 21.4341C102.138 19.596 103.618 18.0875 105.471 18.0536Z" fill="#19191B"/>
<path fill-rule="evenodd" clip-rule="evenodd" d="M117.001 7.70841C116.013 8.11402 115.369 9.06959 115.369 10.1295C115.384 11.5708 116.559 12.7358 118.012 12.7501C119.081 12.7501 120.045 12.1116 120.454 11.1324C120.863 10.1531 120.637 9.02596 119.881 8.27648C119.125 7.527 117.988 7.30279 117.001 7.70841ZM120.22 14.031H115.814L115.808 28.5898H120.22V14.031Z" fill="#19191B"/>
<path fill-rule="evenodd" clip-rule="evenodd" d="M137.342 26.6001C138.659 25.1576 139.342 23.2538 139.239 21.3104C139.343 19.3667 138.66 17.4623 137.343 16.0194C136.026 14.5765 134.182 13.7142 132.221 13.6237C130.569 13.5343 128.963 14.186 127.848 15.3987V14.031H123.443V34.4119H127.848V27.2193C128.962 28.4329 130.568 29.0852 132.221 28.9957C134.182 28.9048 136.025 28.0426 137.342 26.6001ZM131.283 17.933C133.201 17.9012 134.786 19.4088 134.835 21.3104C134.901 22.2555 134.558 23.1838 133.891 23.862C133.224 24.5403 132.296 24.904 131.342 24.8619C129.423 24.8621 127.864 23.3286 127.848 21.4264C127.831 19.5242 129.365 17.9648 131.283 17.933Z" fill="#19191B"/>
<path d="M152.831 24.2207C152.831 27.5692 149.896 28.9957 146.726 28.9957C144.104 29.2311 141.603 27.8585 140.412 25.531L144.228 23.3766C144.546 24.4601 145.585 25.1759 146.72 25.0942C147.776 25.0942 148.305 24.7736 148.305 24.1927C148.305 22.5898 141.081 23.4354 141.081 18.3986C141.081 15.2236 143.783 13.6236 146.837 13.6236C149.175 13.5503 151.368 14.7435 152.562 16.7383L148.803 18.7471C148.467 17.9676 147.692 17.4632 146.837 17.4663C146.073 17.4663 145.603 17.7604 145.603 18.281C145.609 19.9413 152.831 18.8339 152.831 24.2207Z" fill="#19191B"/>
<path d="M168.921 14.031V28.5898H164.517V27.2207C163.486 28.4462 161.925 29.1069 160.319 28.9972C157.353 28.9972 154.832 26.9016 154.832 22.9678V14.031H159.237V22.3281C159.162 23.0299 159.403 23.7287 159.895 24.2386C160.387 24.7485 161.08 25.0179 161.791 24.9751C163.406 24.9751 164.521 24.0442 164.521 21.9766V14.0354L168.921 14.031Z" fill="#19191B"/>
<path d="M194.178 19.6501V28.5883H189.773V20.0281C189.773 18.5722 189.069 17.6413 187.66 17.6413C186.192 17.6413 185.368 18.6604 185.368 20.3781V28.5883H180.965V20.0281C180.965 18.5722 180.261 17.6413 178.85 17.6413C177.382 17.6413 176.561 18.6604 176.561 20.3781V28.5883H172.156V14.0295H176.561V15.3678C177.488 14.1614 178.97 13.5041 180.495 13.6222C182.028 13.5478 183.488 14.277 184.341 15.5428C185.333 14.2195 186.941 13.4942 188.599 13.6222C191.97 13.6236 194.178 16.0104 194.178 19.6501Z" fill="#19191B"/>
<path d="M197.903 13.9413C199.708 13.9413 201.172 12.4902 201.172 10.7001C201.172 8.91005 199.708 7.45892 197.903 7.45892C196.098 7.45892 194.635 8.91005 194.635 10.7001C194.635 12.4902 196.098 13.9413 197.903 13.9413Z" fill="#19191B"/>
</svg>
